<?xml version="1.0" encoding="UTF-8"?>
<svg id="Calque_2" data-name="Calque 2" xmlns="http://www.w3.org/2000/svg" viewBox="0 0 588.04 208.21">
  <defs>
    <style>
      .cls-1, .cls-2 {
        stroke-width: 0px;
      }

      .cls-2 {
        fill: #020202;
      }
    </style>
  </defs>
  <g id="Calque_1-2" data-name="Calque 1">
    <g>
      <path class="cls-1" d="M387.36,192.02c0-10.21.2-20.44-.09-30.65-.16-5.58-.51-11.31-1.93-16.65-2.54-9.53-8.96-13.53-19.95-13.32-2.82,20.15,9.36,41.9-7.45,60.89v-61.16h-23.07c0,10.55-.05,21.34.02,32.12.05,6.21.36,12.44.49,18.65.31,14.09-.07,14.36-14.81,12.26v-76.23c6.4-3.12,11.43-3.89,18.77-2.14,10.25,2.46,21.62,1.44,32.39.57,15.75-1.26,25.94,7.05,22.33,25.91-1.62,8.42.04,17.84,2.05,26.38,2.31,9.65-1.65,16.47-8.76,23.37Z"/>
      <path class="cls-1" d="M238.16,176.14c-.74-10.82-1.07-21.68-2.31-32.43-2-17.6-23.25-26.86-38.04-16.35-2.94,2.1-5.12,7.61-4.81,11.31.98,11.47,3.34,22.83,5.16,34.24.94,5.96,4.47,7.02,10.3,4.81,0-6.21-.89-12.72.42-18.77.56-2.58,5.45-5.17,8.79-5.87,1.42-.29,5.45,4.25,5.5,6.64.07,3.8-2.03,7.73-3.52,11.49-.67,1.72-2.09,3.16-3.16,4.72,2.23.97,4.41,2.53,6.74,2.78,11.85,1.26,15.95,7.86,11.66,18.14-6.12-.92-12.1-1.81-19.42-2.91,1.18,5.72,2,9.58,2.8,13.46-.69.27-1.36.54-2.05.81-1.76-4.16-3.51-8.33-5.92-14.03-5.49,0-11.75-.11-18.04.04-5.07.13-6.83-2.12-6.76-7.02.24-19.27.02-38.57.33-57.84.16-9.8,4.51-15.15,14.35-16.29,8.27-.95,16.88-.93,25.09.29,8.68,1.27,14.99,6.48,15.08,16.15.15,15.56.04,31.1.04,46.66-.74-.02-1.47-.02-2.22-.02Z"/>
      <path class="cls-1" d="M449.15,179.44h-28.63c4.54-15.7,4.81-15.92,19.55-15.67,14.37.23,16.42-1.88,14.99-15.38-1.83-17.39-5.67-20.94-23.33-20.96-5.61,0-11.23.66-17.77,1.09.98,17.52,2.14,33.99,2.67,50.48.16,4.94,4.12,13.39-4.47,13.69-8.03.27-5.18-8.42-5.58-13.33-.45-5.55.84-11.2,1.05-16.82.69-17.44,2.94-35.03-6.14-51.22,14.35,0,27.42.11,40.46-.04,13.73-.14,20.06,5.72,19.88,19.2-.13,9.48-.73,18.93-1.11,28.39-.02.59.18,1.42-.13,1.74-10.03,10.34-.98,19.49,1.74,29.05.22.75-.16,1.67-.27,2.49q-7.1.39-12.92-12.74Z"/>
      <path class="cls-2" d="M44.93,66.98c-2.4.72-4.34,1.74-6.32,1.81-6.9.22-13.83.07-20.8.07,1.53-14.2,4.25-16.58,17.55-16.55,3.58,0,7.32.04,10.72-.92,2.33-.65,5.21-2.53,6.05-4.58,4.87-11.83-6.65-29.57-19.48-30.24-6.58-.34-13.19-.05-20.91-.05,0,7.84-.22,14.79.05,21.73.45,11.83,1.53,23.65,1.6,35.48.02,2.73-2.89,5.47-4.45,8.22-1.67-2.58-4.74-5.13-4.8-7.75-.22-11.52.4-23.06.74-34.6.27-9.17,3.09-18.38-2.51-27.31C.24,8.87.62,3.94,0,.45c13.54,0,26.34.11,39.15-.04,12.95-.14,19.11,5.15,19.15,17.89.04,10.34,2.13,22.11-2.09,30.67-5.6,11.31-1.51,19.26,2.33,28.44.22.52.27,1.18.2,1.76-.07.54-.4,1.06-.94,2.37-10.08.45-9.03-8.92-12.86-14.57Z"/>
      <path class="cls-1" d="M576.76,194.38c0-15.81.44-29.59-.11-43.34-.64-16.15-7.5-21.86-24.09-21.93-6.12-.02-8.76,1.96-8.39,8.33.8,13.91,1.2,27.83,1.53,41.76.35,14.93.22,14.93-13.93,13.46,0-22.14.36-44.2-.2-66.24-.2-7.7,4.18-11,9.97-12.65,2.89-.83,6.67,2.14,10.14,2.4,6.61.5,13.26.16,19.89.39,9.37.34,18.49,10.3,15.04,18.47-4.12,9.8-1.29,18.57.31,27.69,2.67,15.36,1.13,21.97-10.16,31.66Z"/>
      <path class="cls-1" d="M234.33,1.14h15.3v50.73c0,3.27.04,6.51-.02,9.78-.22,13.89-.89,14.75-16.24,19.94.51-2.62.93-4.81,1.42-7.3-7.54,0-14.68.74-21.6-.16-10.88-1.42-14.88-5.71-15.22-16.35-.55-17.46-.49-34.92-.25-52.4.02-1.6,3.34-4.63,4.71-4.4,2.29.36,5.78,2.6,6.03,4.41.85,6.12.51,12.4.58,18.63.15,11.84-.2,23.72.67,35.53.25,3.36,3.45,8.47,6.3,9.26,5.12,1.4,11.06.48,16.53-.34.94-.14,1.69-4.61,1.71-7.09.16-19.85.09-39.66.09-60.24Z"/>
      <path class="cls-1" d="M292.9,113.62h12.19c0,19.63-.71,38.8.27,57.87.58,11.32-1.69,19.47-14.32,23.01.35-2.48.71-5.01,1.13-7.99-6.01.47-11.63,1.31-17.22,1.26-13.19-.13-18.77-5.29-19.19-18.25-.56-17.12-.65-34.26-.62-51.38,0-1.62,2.22-4.18,3.85-4.59,1.78-.45,5.12.54,5.92,1.94,1.38,2.4,1.74,5.58,1.78,8.45.25,15.99-.11,32.02.69,47.97.18,3.54,3.51,8.97,6.52,9.87,5.05,1.51,11.08.41,16.55-.45.89-.14,1.47-4.68,1.49-7.2.18-16.58.13-33.18.24-49.76.04-3.48.45-6.96.71-10.75Z"/>
      <path class="cls-1" d="M80.34,45.66c3.58,11.79,8.01,15.43,19.78,16.62q15.99,1.62,19.68,17.01c-21.71,9.35-42.77-3.86-46.64-29.83-1.25-8.4-.4-17.08-.93-25.61-.22-3.48-1.6-6.87-4.47-10.07,1.42-4.16,2.82-8.33,4.47-13.19h30.58c.04,11.7-2.27,14.73-11.77,14.93-15.46.34-15.53.34-14.24,15.54.33,3.77,1.24,7.5,2.45,14.57,4-17.48,15.79-11.99,25.42-13.57-1.04,8.61-3.71,14.12-13.61,12.54-3.4-.56-7.09.63-10.72,1.04Z"/>
      <path class="cls-1" d="M127.41,13.72C130.26.04,130.95-.5,144.89.18c4.18.2,8.36.41,13.21.66-.85,7.88-1.44,15.47-13.57,16.17,3.52,15.65,6.63,30.9,10.77,45.89.53,1.88,6.47,2.32,11.25,3.86,2.74-19,5.38-36.47,7.76-53.96,1.38-10.1,1.85-10.75,12.25-11.49,0,1.7.36,3.48-.05,5.04-6.14,22.56-12.55,45.03-18.48,67.64-1.36,5.22-3.6,7.48-9.19,7.25-8.32-.34-16.68-.09-25.43-.09,2.02-8.06,5.16-15.83,17.91-15.45-4.65-15.99-8.76-31.32-13.86-46.32-.84-2.53-6.09-3.57-10.03-5.67Z"/>
      <path class="cls-1" d="M313.34,80.04c-22.16,5.51-37.41-2.57-43.22-24.01-2.29-8.45-2.2-17.5-3.45-26.24-.74-5.26,4-11.2-2.92-16.1-1.34-.95,2.05-8.38,3.4-13.35h30.38c-1.31,4.52-2.73,9.37-4.23,14.57-6.79.48-13.61.95-21.55,1.51.47,9.21.93,17.6,1.36,26,.73.63,1.45,1.24,2.2,1.87,1.96-15.43,13.06-10.68,21.29-12.22.76.59,1.53,1.18,2.29,1.76-2.53,3.61-4.31,8.92-7.79,10.41-4.25,1.81-9.92.43-15.21.43,2.18,11.86,7.3,16.4,18.69,17.5,15.68,1.49,16.06,1.85,18.77,17.87Z"/>
      <path class="cls-1" d="M518.38,109.89c0,3.54,1,6.93-.16,9.26-6.79,13.6-1.34,27.35-.94,40.99.22,7.97,2.03,15.88,2.42,23.85.15,3.14-1.64,6.37-2.53,9.55-1.4-.11-2.8-.22-4.18-.32-.84-9.04-1.67-18.09-2.58-28.07-7.32,1.2-14.3,2.33-21.64,3.54-1.62-5.67-2.05-9.51,5.12-11.66,17.93-5.38,17.82-5.72,14.24-24.55-.16-.86-.47-1.69-.71-2.49-11.12-1.85-19.26,3.48-23.07,15.72-4.05,12.99-7.54,26.15-11.48,39.18-.93,3.05-2.73,5.87-4.12,8.78-.84-.27-1.67-.52-2.49-.79.25-2.05.31-4.13.8-6.12,3.36-13.78,6.96-27.53,10.21-41.35,5.98-25.46,13.03-31.78,41.11-35.5Z"/>
      <path class="cls-1" d="M348.71,82.77v-45.17c11.12.9,12.64,2.42,12.7,14.18.04,7.39.11,14.77.2,22.16,0,.23.29.47.44.7,11.32-2.39,16.66-12.35,12.26-23.38-1.18-2.98-3.54-5.53-4.78-8.51-.93-2.24-.91-4.88-1.31-7.34,2.16.99,4.94,1.45,6.41,3.05,12.43,13.44,11.61,30.74-2.94,39.71-5.5,3.37-13.48,2.85-22.98,4.59Z"/>
      <path class="cls-1" d="M397.33,47.96c.16,3.55.36,7.82.51,11.13,5.94-1.47,11.32-2.8,17.7-4.38-1.74,11.23-10.14,6.17-15.12,9.19,1.73,7.88,8.16,8.87,14.75,9.01,6.34.13,10.41,2.19,10.66,8.97-15.84,5.38-27.71-1.58-30.79-18.09-.49-2.6-.94-5.26-1.04-7.9-.2-5.53-2.05-14.75.2-15.86,5.81-2.91,13.46-2.26,20.57-3.05-.05,13.53-11.7,6.16-17.44,10.98Z"/>
    </g>
  </g>
</svg>